<?xml version="1.0" standalone="no"?><!DOCTYPE svg PUBLIC "-//W3C//DTD SVG 1.1//EN" "http://www.w3.org/Graphics/SVG/1.1/DTD/svg11.dtd"><svg class="icon" height="512" viewBox="0 0 1033 1024" version="1.1" xmlns="http://www.w3.org/2000/svg"><path d="M488.941991 340.573229h-244.483132c-7.233356 0-13.019772 11.572831-13.019772 26.039543 0 14.466713 5.786415 26.039544 13.019772 26.039544h244.483132c7.232008 0 13.019772-11.574179 13.019772-26.039544 0-14.466713-5.787764-26.039544-13.019772-26.039543m0 0zM488.941991 483.789371h-244.483132c-7.233356 0-13.019772 11.574179-13.019772 26.04224 0 14.465364 5.786415 26.038195 13.019772 26.038195h244.483132c7.232008 0 13.019772-11.572831 13.019772-26.038195 0-14.468061-5.787764-26.042241-13.019772-26.04224m0 0zM488.941991 616.880971h-244.483132c-7.233356 0-13.019772 11.574179-13.019772 26.042241 0 14.465364 5.786415 26.038195 13.019772 26.038195h244.483132c7.232008 0 13.019772-11.572831 13.019772-26.038195 0-14.468061-5.787764-26.042241-13.019772-26.042241m0 0zM703.043407 887.403647h-552.615485V133.70382h426.75859v99.817352c0 10.12589 8.680297 18.806187 18.806187 18.806187h105.605116v50.632146h63.651918v-82.458105c0-8.680297-2.893882-15.912305-10.127238-21.700069l-124.411303-115.731006c-5.786415-5.787764-14.466713-8.680297-23.14701-8.680298H115.708081c-17.359246 0-31.825959 13.019772-31.825959 30.379019v814.459211c0 17.359246 14.466713 30.37767 31.825959 30.37767h616.267404c17.360595 0 31.827308-13.018423 31.827307-30.37767v-63.651918h-63.653266v31.825959h2.893881m0 0.001349zM725.276134 829.345308h-2.761728c-43.739961 0-87.466436 0.095744-131.217185-0.048546-22.739763-0.074168-40.283754-10.028798-52.110103-29.95424-4.672554-7.863106-7.033778-16.559586-7.690498-25.729389-0.122714-1.766536-0.133502-3.520935-0.133502-5.28747-0.013485-52.74255-0.03641-105.497236 0-158.243831 0.010788-20.842423 8.200231-37.59889 24.722059-49.914744 10.450879-7.788939 22.386456-11.053658 35.234968-11.042871 13.966419 0 27.947672 0.035061 41.914091-0.059334 1.995781-0.013485 2.761729 0.663462 3.359115 2.537878 29.246278 91.684546 58.56942 183.347515 87.891214 275.019925 0.2697 0.796964 0.476021 1.596625 0.791569 2.722622z m15.041174-503.753919c59.627993 0 108.10119 49.47783 108.064781 110.291155-0.03641 60.594868-48.53388 110.096971-107.979825 110.194062-59.421672 0.097092-108.23604-49.62212-108.258965-110.24126-0.001349-60.717581 48.591865-110.256094 108.174009-110.243957z m-0.09844 448.517992c-2.860169-8.92977-5.621898-17.494096-8.371491-26.058422-14.466713-45.257024-28.909153-90.523487-43.460821-135.779162-0.776736-2.455619-0.511082-3.833787 1.508972-5.550428 16.279097-13.756053 32.43683-27.642911 48.581077-41.567527 1.37547-1.197468 2.153555-1.233878 3.565436-0.024273a10910.741428 10910.741428 0 0 0 49.39692 42.280883c1.302651 1.112513 1.595276 2.00522 1.046436 3.725907-17.192032 53.590756-34.309897 107.181513-51.439898 160.781709-0.207669 0.605477-0.449051 1.197468-0.826631 2.191313z m208.938008-84.839557c0-26.372623-0.047198-52.74255 0.037758-79.128658 0.022925-10.174436-1.838006-19.899821-6.656198-28.814758-10.426605-19.344239-26.426563-30.400594-48.11989-31.839444-15.852971-1.063967-31.755837-0.169911-47.633081-0.411293-1.82587-0.035061-2.287057 0.883268-2.72532 2.28436-2.835896 8.954043-5.717642 17.893252-8.565675 26.856735-26.450836 82.818155-52.890885 165.648447-79.364645 248.451769-0.535355 1.695065-1.155665 2.734759 1.545381 2.722622 44.104056-0.084956 88.208112-0.035061 132.313516-0.072819 10.622138-0.012137 20.733194-2.3828 29.857149-8.031668 19.284905-11.963896 29.164019-29.553736 29.286732-52.610397 0.13485-26.457579 0.024273-52.923249 0.024273-79.406449z m-40.867654 46.587993c-1.545382 0.652674-3.163582 0.736281-4.816844 0.736282-14.236119-0.024273-28.469542-0.010788-42.693524-0.010788-9.612111 0-19.222874 0.048546-28.836334-0.024273-6.180178-0.037758-10.097571-4.853253-8.697828-10.500773 0.852252-3.423843 3.674664-5.915871 7.214478-6.110056 2.799487-0.156426 5.621898-0.097092 8.420036-0.097092h29.382477v0.013485c12.23899 0 24.479329-0.047198 36.718319 0.025622 4.23564 0.024273 7.519239 2.853427 8.16517 6.702047 0.668856 3.918742-1.339061 7.778151-4.85595 9.265546z" /></svg>